<svg width="21" height="13" viewBox="0 0 21 13" fill="none" xmlns="http://www.w3.org/2000/svg">
<path d="M20.6514 1.80298C20.5453 1.74282 20.425 1.71095 20.3024 1.71054C20.1798 1.71014 20.0592 1.74122 19.9527 1.80067L16.1 3.95251V3.42105C16.0989 2.51405 15.7298 1.6445 15.0737 1.00315C14.4176 0.361807 13.5279 0.00104125 12.6 0H1.4C1.02882 0.000407466 0.672971 0.144711 0.410511 0.401251C0.14805 0.657792 0.000416869 1.00562 0 1.36842V9.57895C0.00106528 10.4859 0.370156 11.3555 1.0263 11.9968C1.68245 12.6382 2.57207 12.999 3.5 13H14.7C15.0712 12.9996 15.427 12.8553 15.6895 12.5987C15.9519 12.3422 16.0996 11.9944 16.1 11.6316V9.04749L19.9527 11.1993C20.0592 11.2588 20.1797 11.2899 20.3023 11.2895C20.425 11.2891 20.5453 11.2572 20.6514 11.197C20.7574 11.1369 20.8454 11.0506 20.9066 10.9467C20.9678 10.8429 21 10.7251 21 10.6053V2.39474C21 2.2749 20.9678 2.15715 20.9066 2.0533C20.8455 1.94945 20.7574 1.86313 20.6514 1.80298ZM14.7 11.6316H3.5C2.94324 11.631 2.40946 11.4145 2.01577 11.0297C1.62208 10.6449 1.40063 10.1232 1.4 9.57895V1.36842H12.6C13.1568 1.36903 13.6905 1.58549 14.0842 1.9703C14.4779 2.35511 14.6994 2.87685 14.7 3.42105L14.7002 5.14176V5.14886L14.7004 7.84721C14.7003 7.85439 14.7004 7.86149 14.7004 7.86859L14.7009 11.6316H14.7ZM19.6 9.42628L16.1 7.47132V5.52868L19.6 3.57372V9.42628Z" fill="white"/>
</svg>
